<svg width="15" height="15" viewBox="0 0 15 15" fill="none" xmlns="http://www.w3.org/2000/svg">
<path d="M6.78411 7.44966L0.144736 14.089C-0.0397168 14.2735 -0.0397168 14.5723 0.144736 14.7568C0.236846 14.8491 0.357783 14.895 0.478486 14.895C0.599424 14.895 0.720127 14.8491 0.812236 14.7568L7.50153 8.06747L14.1908 14.7568C14.2832 14.8491 14.4039 14.895 14.5246 14.895C14.6453 14.895 14.7662 14.8491 14.8583 14.7568C15.0428 14.5723 15.0428 14.2735 14.8583 14.089L8.21919 7.44966L14.8628 0.805593C15.0472 0.62114 15.0472 0.322312 14.8628 0.137859C14.6783 -0.0463599 14.3795 -0.0463599 14.1953 0.137859L7.50177 6.83184L0.807549 0.138093C0.623096 -0.0461255 0.324502 -0.0461255 0.140049 0.138093C-0.0444043 0.322546 -0.0444043 0.621374 0.140049 0.805828L6.78411 7.44966Z" fill="#5C5C56"/>
</svg>
